<svg fill="none" height="512" viewBox="0 0 512 512" width="512" xmlns="http://www.w3.org/2000/svg">
  <rect fill="#3178c6" height="512" rx="50" width="512"/>
  <rect fill="#3178c6" height="512" rx="50" width="512"/>
  <path clip-rule="evenodd" d="m316.939 407.424v50.061c8.138 4.172 17.763 7.3 28.875 9.386s22.823 3.129 35.135 3.129c11.999 0 23.397-1.147 34.196-3.442 10.799-2.294 20.268-6.075 28.406-11.342 8.138-5.266 14.581-12.15 19.328-20.65s7.121-19.007 7.121-31.522c0-9.074-1.356-17.026-4.069-23.857s-6.625-12.906-11.738-18.225c-5.112-5.319-11.242-10.091-18.389-14.315s-15.207-8.213-24.18-11.967c-6.573-2.712-12.468-5.132-17.685-7.262-5.217-2.129-9.611-4.36-13.182-6.692-3.571-2.332-6.29-4.818-8.157-7.458-1.867-2.64-2.801-5.756-2.801-9.347 0-3.233.628-6.075 1.884-8.527 1.256-2.451 3.084-4.509 5.483-6.174 2.399-1.665 5.332-2.929 8.799-3.793 3.467-.864 7.416-1.296 11.847-1.296 3.127 0 6.418.266 9.875.798 3.456.533 6.922 1.296 10.397 2.29s6.858 2.217 10.142 3.679c3.283 1.462 6.22 3.129 8.81 5.001v-46.298c-7.651-2.97-15.775-5.184-24.37-6.644-8.596-1.459-18.389-2.189-29.378-2.189-11.868 0-22.969 1.128-33.304 3.384-10.335 2.256-19.369 5.831-27.104 10.725-7.735 4.895-13.806 11.342-18.213 19.343-4.407 8.001-6.61 17.813-6.61 29.437 0 14.627 3.724 26.769 11.173 36.426 7.449 9.657 18.213 17.847 32.293 24.569 6.573 2.712 12.677 5.133 18.311 7.262 5.634 2.13 10.432 4.36 14.393 6.692 3.962 2.332 7.091 4.818 9.39 7.458 2.298 2.64 3.447 5.756 3.447 9.347 0 3.233-.583 6.056-1.748 8.469-1.166 2.413-2.905 4.471-5.216 6.174-2.312 1.704-5.217 2.987-8.717 3.85-3.5.864-7.658 1.296-12.475 1.296-9.701 0-19.369-1.665-29.004-4.994-9.636-3.328-18.213-8.322-25.732-14.982zm-84.159-123.342h64.22v-41.082h-179v41.082h63.906v182.918h50.874z" fill="#fff" fill-rule="evenodd"/>
</svg> 